<?xml version="1.0" encoding="UTF-8" standalone="no"?>
<svg
   width="500"
   height="370"
   viewBox="0 0 132.29166 97.895837"
   version="1.1"
   id="svg8"
   sodipodi:docname="Negative_Einkommenssteuer.svg"
   inkscape:version="1.2.2 (b0a8486541, 2022-12-01)"
   xmlns:inkscape="http://www.inkscape.org/namespaces/inkscape"
   xmlns:sodipodi="http://sodipodi.sourceforge.net/DTD/sodipodi-0.dtd"
   xmlns="http://www.w3.org/2000/svg"
   xmlns:svg="http://www.w3.org/2000/svg"
   xmlns:rdf="http://www.w3.org/1999/02/22-rdf-syntax-ns#"
   xmlns:cc="http://creativecommons.org/ns#"
   xmlns:dc="http://purl.org/dc/elements/1.1/">
  <sodipodi:namedview
     id="namedview36"
     pagecolor="#ffffff"
     bordercolor="#666666"
     borderopacity="1.0"
     inkscape:showpageshadow="2"
     inkscape:pageopacity="0.0"
     inkscape:pagecheckerboard="0"
     inkscape:deskcolor="#d1d1d1"
     showgrid="false"
     inkscape:zoom="2.0567568"
     inkscape:cx="167.49671"
     inkscape:cy="187.18791"
     inkscape:window-width="1920"
     inkscape:window-height="1052"
     inkscape:window-x="1920"
     inkscape:window-y="0"
     inkscape:window-maximized="1"
     inkscape:current-layer="svg8" />
  <defs
     id="defs2">
    <marker
       style="overflow:visible"
       id="marker4026"
       refX="0"
       refY="0"
       orient="auto"
       viewBox="0 0 6.9304588 5.1962256"
       markerWidth="6.9304585"
       markerHeight="5.1962256"
       preserveAspectRatio="xMidYMid">
      <path
         transform="scale(-0.6)"
         d="M 8.7185878,4.0337352 -2.2072895,0.01601326 8.7185884,-4.0017078 c -1.7454984,2.3720609 -1.7354408,5.6174519 -6e-7,8.035443 z"
         style="fill:#007cc3;fill-opacity:1;fill-rule:evenodd;stroke:#007cc3;stroke-width:0.625;stroke-linejoin:round;stroke-opacity:1"
         id="path4024" />
    </marker>
    <marker
       style="overflow:visible"
       id="Arrow2Mstart"
       refX="0"
       refY="0"
       orient="auto">
      <path
         transform="scale(0.6)"
         d="M 8.7185878,4.0337352 -2.2072895,0.01601326 8.7185884,-4.0017078 c -1.7454984,2.3720609 -1.7354408,5.6174519 -6e-7,8.035443 z"
         style="fill:#000000;fill-opacity:1;fill-rule:evenodd;stroke:#000000;stroke-width:0.625;stroke-linejoin:round;stroke-opacity:1"
         id="path1468" />
    </marker>
    <marker
       style="overflow:visible"
       id="Arrow2Mend"
       refX="0"
       refY="0"
       orient="auto"
       viewBox="0 0 6.93045877 5.19622555"
       markerWidth="6.93045877"
       markerHeight="5.19622555"
       preserveAspectRatio="xMidYMid">
      <path
         transform="scale(-0.6)"
         d="M 8.7185878,4.0337352 -2.2072895,0.01601326 8.7185884,-4.0017078 c -1.7454984,2.3720609 -1.7354408,5.6174519 -6e-7,8.035443 z"
         style="fill:#000000;fill-opacity:1;fill-rule:evenodd;stroke:#000000;stroke-width:0.625;stroke-linejoin:round;stroke-opacity:1"
         id="path1471" />
    </marker>
    <marker
       style="overflow:visible"
       id="marker4026-8"
       refX="0"
       refY="0"
       orient="auto"
       viewBox="0 0 6.9304588 5.1962256"
       markerWidth="6.9304585"
       markerHeight="5.1962256"
       preserveAspectRatio="xMidYMid">
      <path
         transform="scale(-0.6)"
         d="M 8.7185878,4.0337352 -2.2072895,0.01601326 8.7185884,-4.0017078 c -1.7454984,2.3720609 -1.7354408,5.6174519 -6e-7,8.035443 z"
         style="fill:#009240;fill-opacity:1;fill-rule:evenodd;stroke:#009240;stroke-width:0.625;stroke-linejoin:round;stroke-opacity:1"
         id="path4024-1" />
    </marker>
    <marker
       style="overflow:visible"
       refX="0"
       refY="0"
       orient="auto"
       viewBox="0 0 6.93045877 5.19622555"
       markerWidth="6.93045807"
       markerHeight="5.19622502"
       preserveAspectRatio="xMidYMid"
       id="marker4026-81498"
       inkscape:stockid="marker4026-81498">
      <path
         transform="scale(-0.6)"
         d="M 8.7185878,4.0337352 -2.2072895,0.01601326 8.7185884,-4.0017078 c -1.7454984,2.3720609 -1.7354408,5.6174519 -6e-7,8.035443 z"
         style="fill:#666666;fill-opacity:1;fill-rule:evenodd;stroke:#666666;stroke-width:0.625;stroke-linejoin:round;stroke-opacity:1"
         id="path1033" />
    </marker>
    <marker
       style="overflow:visible"
       refX="0"
       refY="0"
       orient="auto"
       viewBox="0 0 6.93045877 5.19622555"
       markerWidth="6.93045819"
       markerHeight="5.19622512"
       preserveAspectRatio="xMidYMid"
       id="marker40261469"
       inkscape:stockid="marker40261469">
      <path
         transform="scale(-0.6)"
         d="M 8.7185878,4.0337352 -2.2072895,0.01601326 8.7185884,-4.0017078 c -1.7454984,2.3720609 -1.7354408,5.6174519 -6e-7,8.035443 z"
         style="fill:#b2b2b2;fill-opacity:1;fill-rule:evenodd;stroke:#b2b2b2;stroke-width:0.625;stroke-linejoin:round;stroke-opacity:1"
         id="path1419" />
    </marker>
  </defs>
  <metadata
     id="metadata5">
    <rdf:RDF>
      <cc:Work
         rdf:about="">
        <dc:format>image/svg+xml</dc:format>
        <dc:type
           rdf:resource="http://purl.org/dc/dcmitype/StillImage" />
        <dc:title />
      </cc:Work>
    </rdf:RDF>
  </metadata>
  <g
     id="layer1">
    <path
       style="fill:#b9db7d;fill-opacity:1;stroke:#000000;stroke-width:0.247883px;stroke-linecap:butt;stroke-linejoin:miter;stroke-opacity:1"
       d="M 11.589272,58.295705 51.304735,44.122083 11.60814,83.76937 Z"
       id="path4480" />
    <path
       style="fill:#f06458;fill-opacity:1;stroke:none;stroke-width:0.247883px;stroke-linecap:butt;stroke-linejoin:miter;stroke-opacity:1"
       d="M 51.304735,44.122083 91.461863,4.358295 c 11.857267,15.19591 23.070827,2.7184767 31.851787,14.099078 z"
       id="path4482" />
    <path
       style="fill:none;stroke:#b2b2b2;stroke-width:0.991529;stroke-linecap:butt;stroke-linejoin:miter;stroke-miterlimit:4;stroke-dasharray:none;stroke-opacity:1;marker-end:url(#marker40261469)"
       d="M 11.60814,83.76937 92.34716,3.2074094"
       id="path2958" />
    <path
       style="fill:none;stroke:#666666;stroke-width:0.991529;stroke-linecap:butt;stroke-linejoin:miter;stroke-miterlimit:4;stroke-dasharray:none;stroke-opacity:1;marker-end:url(#marker4026-81498)"
       d="M 11.589272,58.295705 123.31365,18.457373"
       id="path2958-9" />
    <g
       aria-label="Brutto"
       id="text4366"
       style="font-style:normal;font-variant:normal;font-weight:normal;font-stretch:normal;font-size:8.89484px;line-height:1.25;font-family:Arial;-inkscape-font-specification:Arial;stroke-width:0.222371"
       transform="matrix(0.93688048,0,0,0.93688048,29.402595,28.526883)">
      <path
         d="m 32.525141,70.512344 v -6.367107 h 2.388751 q 0.729654,0 1.168316,0.195443 0.443005,0.1911 0.690566,0.595016 0.251905,0.399573 0.251905,0.838235 0,0.408259 -0.221503,0.768743 -0.221502,0.360485 -0.66885,0.581987 0.577644,0.169384 0.88601,0.577643 0.312709,0.40826 0.312709,0.964187 0,0.447348 -0.1911,0.833892 -0.186757,0.3822 -0.464721,0.590673 -0.277964,0.208472 -0.699252,0.317052 -0.416946,0.104236 -1.024992,0.104236 z m 0.842577,-3.691706 h 1.376789 q 0.560271,0 0.803489,-0.07383 0.321396,-0.09555 0.482094,-0.317052 0.165041,-0.221503 0.165041,-0.555928 0,-0.317052 -0.152012,-0.555927 -0.152011,-0.243219 -0.434318,-0.330082 -0.282307,-0.09121 -0.96853,-0.09121 h -1.272553 z m 0,2.940336 h 1.585262 q 0.408259,0 0.5733,-0.0304 0.290994,-0.05212 0.486437,-0.173727 0.195443,-0.121609 0.321396,-0.351798 0.125952,-0.234532 0.125952,-0.538555 0,-0.356141 -0.182414,-0.616732 -0.182413,-0.264934 -0.508152,-0.36917 -0.321396,-0.10858 -0.929442,-0.10858 h -1.472339 z"
         style="font-style:normal;font-variant:normal;font-weight:normal;font-stretch:normal;font-family:Arial;-inkscape-font-specification:Arial;stroke-width:0.222371"
         id="path4598" />
      <path
         d="m 38.384095,70.512344 v -4.612461 h 0.703596 v 0.699253 q 0.269277,-0.49078 0.495123,-0.647135 0.230189,-0.156354 0.503809,-0.156354 0.39523,0 0.803489,0.251905 l -0.269277,0.725311 q -0.28665,-0.169384 -0.5733,-0.169384 -0.256248,0 -0.460378,0.156355 -0.20413,0.152011 -0.290993,0.425632 -0.130296,0.416945 -0.130296,0.912068 v 2.41481 z"
         style="font-style:normal;font-variant:normal;font-weight:normal;font-stretch:normal;font-family:Arial;-inkscape-font-specification:Arial;stroke-width:0.222371"
         id="path4600" />
      <path
         d="m 44.377689,70.512344 v -0.677536 q -0.538555,0.781773 -1.463653,0.781773 -0.408259,0 -0.7644,-0.156355 -0.351798,-0.156354 -0.525526,-0.390886 -0.169384,-0.238875 -0.238875,-0.581987 -0.04778,-0.230189 -0.04778,-0.729655 v -2.857815 h 0.781773 v 2.558135 q 0,0.612389 0.04778,0.825205 0.07383,0.308366 0.31271,0.486437 0.238875,0.173727 0.590673,0.173727 0.351797,0 0.660163,-0.17807 0.308367,-0.182414 0.434319,-0.49078 0.130295,-0.312709 0.130295,-0.903382 v -2.471272 h 0.781773 v 4.612461 z"
         style="font-style:normal;font-variant:normal;font-weight:normal;font-stretch:normal;font-family:Arial;-inkscape-font-specification:Arial;stroke-width:0.222371"
         id="path4602" />
      <path
         d="m 48.00859,69.813092 0.112923,0.690566 q -0.330082,0.06949 -0.590673,0.06949 -0.425632,0 -0.660164,-0.134639 -0.234532,-0.134638 -0.330082,-0.351798 -0.09555,-0.221502 -0.09555,-0.925098 v -2.653685 h -0.5733 v -0.608046 h 0.5733 v -1.142257 l 0.77743,-0.469064 v 1.611321 h 0.786116 v 0.608046 h -0.786116 v 2.697117 q 0,0.334425 0.03909,0.429975 0.04343,0.09555 0.134638,0.152012 0.09555,0.05646 0.269278,0.05646 0.130295,0 0.343111,-0.0304 z"
         style="font-style:normal;font-variant:normal;font-weight:normal;font-stretch:normal;font-family:Arial;-inkscape-font-specification:Arial;stroke-width:0.222371"
         id="path4604" />
      <path
         d="m 50.479862,69.813092 0.112923,0.690566 q -0.330082,0.06949 -0.590673,0.06949 -0.425632,0 -0.660164,-0.134639 -0.234532,-0.134638 -0.330082,-0.351798 -0.09555,-0.221502 -0.09555,-0.925098 v -2.653685 h -0.573301 v -0.608046 h 0.573301 v -1.142257 l 0.77743,-0.469064 v 1.611321 h 0.786116 v 0.608046 h -0.786116 v 2.697117 q 0,0.334425 0.03909,0.429975 0.04343,0.09555 0.134639,0.152012 0.09555,0.05646 0.269277,0.05646 0.130296,0 0.343112,-0.0304 z"
         style="font-style:normal;font-variant:normal;font-weight:normal;font-stretch:normal;font-family:Arial;-inkscape-font-specification:Arial;stroke-width:0.222371"
         id="path4606" />
      <path
         d="m 50.953269,68.206114 q 0,-1.281239 0.712282,-1.897971 0.595016,-0.512496 1.450623,-0.512496 0.951157,0 1.55486,0.625418 0.603703,0.621076 0.603703,1.719901 0,0.890353 -0.269278,1.402848 -0.264934,0.508153 -0.77743,0.79046 -0.508152,0.282307 -1.111855,0.282307 -0.96853,0 -1.567889,-0.621076 -0.595016,-0.621075 -0.595016,-1.789391 z m 0.803489,0 q 0,0.886009 0.386543,1.329014 0.386543,0.438662 0.972873,0.438662 0.581987,0 0.96853,-0.443005 0.386544,-0.443005 0.386544,-1.35073 0,-0.855607 -0.390887,-1.294269 -0.386543,-0.443005 -0.964187,-0.443005 -0.58633,0 -0.972873,0.438662 -0.386543,0.438661 -0.386543,1.324671 z"
         style="font-style:normal;font-variant:normal;font-weight:normal;font-stretch:normal;font-family:Arial;-inkscape-font-specification:Arial;stroke-width:0.222371"
         id="path4608" />
    </g>
    <text
       xml:space="preserve"
       style="font-style:normal;font-variant:normal;font-weight:normal;font-stretch:normal;font-size:8.3334px;line-height:1.25;font-family:Arial;-inkscape-font-specification:Arial;stroke-width:0.208335"
       x="-53.344547"
       y="7.6420565"
       id="text4366-2"
       transform="rotate(-90)"><tspan
         id="tspan4364-1"
         x="-53.344547"
         y="7.6420565"
         style="font-style:normal;font-variant:normal;font-weight:normal;font-stretch:normal;font-family:Arial;-inkscape-font-specification:Arial;stroke-width:0.208335">Netto</tspan></text>
    <text
       xml:space="preserve"
       style="font-style:normal;font-variant:normal;font-weight:normal;font-stretch:normal;font-size:4.59562px;line-height:1.25;font-family:Arial;-inkscape-font-specification:Arial;stroke-width:0.114892"
       x="-6.3443227"
       y="64.728111"
       id="text4394"
       transform="rotate(-20.047795)"><tspan
         id="tspan4392"
         x="-6.3443227"
         y="64.728111"
         style="font-style:normal;font-variant:normal;font-weight:normal;font-stretch:normal;font-family:Arial;-inkscape-font-specification:Arial;stroke-width:0.114892">Empfänger</tspan></text>
    <text
       xml:space="preserve"
       style="font-style:normal;font-variant:normal;font-weight:normal;font-stretch:normal;font-size:4.59562px;line-height:1.25;font-family:Arial;-inkscape-font-specification:Arial;stroke-width:0.114892"
       x="65.244263"
       y="56.463516"
       id="text4394-3"
       transform="rotate(-20.047795)"><tspan
         id="tspan4392-4"
         x="65.244263"
         y="56.463516"
         style="font-style:normal;font-variant:normal;font-weight:normal;font-stretch:normal;font-family:Arial;-inkscape-font-specification:Arial;stroke-width:0.114892">Zahler</tspan></text>
    <text
       xml:space="preserve"
       style="font-style:normal;font-variant:normal;font-weight:normal;font-stretch:normal;font-size:6.05779px;line-height:1.25;font-family:Arial;-inkscape-font-specification:Arial;fill:#676767;fill-opacity:1;stroke-width:0.151445"
       x="48.37064"
       y="67.407738"
       id="text4366-4"
       transform="rotate(-20.389421)"><tspan
         id="tspan4364-15"
         x="48.37064"
         y="67.407738"
         style="font-style:normal;font-variant:normal;font-weight:normal;font-stretch:normal;font-family:Arial;-inkscape-font-specification:Arial;fill:#676767;fill-opacity:1;stroke-width:0.151445">Nettoeinkommen</tspan></text>
    <text
       xml:space="preserve"
       style="font-style:normal;font-variant:normal;font-weight:normal;font-stretch:normal;font-size:6.05779px;line-height:1.25;font-family:Arial;-inkscape-font-specification:Arial;stroke-width:0.151445"
       x="14.069595"
       y="65.719589"
       id="text4366-4-0"
       transform="rotate(-45.270457)"><tspan
         id="tspan4364-15-6"
         x="14.069595"
         y="65.719589"
         style="font-style:normal;font-variant:normal;font-weight:normal;font-stretch:normal;font-family:Arial;-inkscape-font-specification:Arial;stroke-width:0.151445">Netto = Brutto</tspan></text>
    <path
       style="fill:none;stroke:#000000;stroke-width:1.23942;stroke-linecap:butt;stroke-linejoin:miter;stroke-miterlimit:4;stroke-dasharray:none;stroke-opacity:1;marker-start:url(#Arrow2Mstart);marker-end:url(#Arrow2Mend)"
       d="M 11.60814,3.5615278 V 83.76937 h 117.12469"
       id="path2872" />
  </g>
</svg>
